<svg width="21" height="21" viewBox="0 0 21 21" fill="none" xmlns="http://www.w3.org/2000/svg">
<path d="M10.8659 0.86377C12.192 0.86377 13.4638 1.39055 14.4014 2.32824C15.3391 3.26592 15.8659 4.53769 15.8659 5.86377C15.8659 7.18985 15.3391 8.46162 14.4014 9.3993C13.4638 10.337 12.192 10.8638 10.8659 10.8638C9.53982 10.8638 8.26805 10.337 7.33037 9.3993C6.39269 8.46162 5.86591 7.18985 5.86591 5.86377C5.86591 4.53769 6.39269 3.26592 7.33037 2.32824C8.26805 1.39055 9.53982 0.86377 10.8659 0.86377ZM10.8659 13.3638C16.3909 13.3638 20.8659 15.6013 20.8659 18.3638V20.8638H0.865906V18.3638C0.865906 15.6013 5.34091 13.3638 10.8659 13.3638Z" fill="#686B6F"/>
</svg>
