<svg width="26" height="26" viewBox="0 0 26 26" fill="none" xmlns="http://www.w3.org/2000/svg">
<path d="M8.45008 2.16699H17.5501C21.0167 2.16699 23.8334 4.98366 23.8334 8.45033V17.5503C23.8334 19.2168 23.1714 20.815 21.9931 21.9933C20.8147 23.1717 19.2165 23.8337 17.5501 23.8337H8.45008C4.98341 23.8337 2.16675 21.017 2.16675 17.5503V8.45033C2.16675 6.78388 2.82874 5.18569 4.00709 4.00734C5.18545 2.82898 6.78364 2.16699 8.45008 2.16699ZM8.23341 4.33366C7.19907 4.33366 6.20709 4.74455 5.4757 5.47594C4.74431 6.20733 4.33341 7.19931 4.33341 8.23366V17.767C4.33341 19.9228 6.07758 21.667 8.23341 21.667H17.7667C18.8011 21.667 19.7931 21.2561 20.5245 20.5247C21.2559 19.7933 21.6667 18.8013 21.6667 17.767V8.23366C21.6667 6.07783 19.9226 4.33366 17.7667 4.33366H8.23341ZM18.6876 5.95866C19.0467 5.95866 19.3912 6.10133 19.6451 6.35528C19.8991 6.60924 20.0417 6.95368 20.0417 7.31283C20.0417 7.67197 19.8991 8.01641 19.6451 8.27037C19.3912 8.52432 19.0467 8.66699 18.6876 8.66699C18.3284 8.66699 17.984 8.52432 17.73 8.27037C17.4761 8.01641 17.3334 7.67197 17.3334 7.31283C17.3334 6.95368 17.4761 6.60924 17.73 6.35528C17.984 6.10133 18.3284 5.95866 18.6876 5.95866ZM13.0001 7.58366C14.4367 7.58366 15.8144 8.15434 16.8302 9.17016C17.8461 10.186 18.4167 11.5637 18.4167 13.0003C18.4167 14.4369 17.8461 15.8147 16.8302 16.8305C15.8144 17.8463 14.4367 18.417 13.0001 18.417C11.5635 18.417 10.1857 17.8463 9.16992 16.8305C8.1541 15.8147 7.58341 14.4369 7.58341 13.0003C7.58341 11.5637 8.1541 10.186 9.16992 9.17016C10.1857 8.15434 11.5635 7.58366 13.0001 7.58366ZM13.0001 9.75033C12.1381 9.75033 11.3115 10.0927 10.702 10.7022C10.0925 11.3117 9.75008 12.1384 9.75008 13.0003C9.75008 13.8623 10.0925 14.6889 10.702 15.2984C11.3115 15.9079 12.1381 16.2503 13.0001 16.2503C13.862 16.2503 14.6887 15.9079 15.2982 15.2984C15.9077 14.6889 16.2501 13.8623 16.2501 13.0003C16.2501 12.1384 15.9077 11.3117 15.2982 10.7022C14.6887 10.0927 13.862 9.75033 13.0001 9.75033Z" fill="black"/>
</svg>
