<svg width="17" height="16" viewBox="0 0 17 16" fill="none" xmlns="http://www.w3.org/2000/svg">
<path d="M6.6035 0C8.17965 0 9.69123 0.62612 10.8057 1.74062C11.9202 2.85512 12.5464 4.36671 12.5464 5.94286C12.5464 7.41486 12.0069 8.768 11.1201 9.81029L11.3669 10.0571H12.0892L16.6606 14.6286L15.2892 16L10.7178 11.4286V10.7063L10.4709 10.4594C9.42864 11.3463 8.0755 11.8857 6.6035 11.8857C5.02736 11.8857 3.51577 11.2596 2.40127 10.1451C1.28676 9.03059 0.660645 7.519 0.660645 5.94286C0.660645 4.36671 1.28676 2.85512 2.40127 1.74062C3.51577 0.62612 5.02736 0 6.6035 0ZM6.6035 1.82857C4.31779 1.82857 2.48922 3.65714 2.48922 5.94286C2.48922 8.22857 4.31779 10.0571 6.6035 10.0571C8.88922 10.0571 10.7178 8.22857 10.7178 5.94286C10.7178 3.65714 8.88922 1.82857 6.6035 1.82857Z" fill="#686B6F"/>
</svg>
